<mxfile host="65bd71144e">
    <diagram id="1GiSdrNfa5hbBtDBP9O4" name="Page-1">
        <mxGraphModel dx="1855" dy="1538" grid="1" gridSize="10" guides="1" tooltips="1" connect="1" arrows="1" fold="1" page="1" pageScale="1" pageWidth="827" pageHeight="1169" math="0" shadow="0">
            <root>
                <mxCell id="0"/>
                <mxCell id="1" parent="0"/>
                <mxCell id="2" value="" style="rounded=0;whiteSpace=wrap;html=1;" vertex="1" parent="1">
                    <mxGeometry x="40" y="40" width="660" height="520" as="geometry"/>
                </mxCell>
                <mxCell id="3" value="NavBar" style="rounded=0;whiteSpace=wrap;html=1;" vertex="1" parent="1">
                    <mxGeometry x="40" y="40" width="660" height="80" as="geometry"/>
                </mxCell>
                <mxCell id="4" value="Footer" style="rounded=0;whiteSpace=wrap;html=1;" vertex="1" parent="1">
                    <mxGeometry x="40" y="480" width="660" height="80" as="geometry"/>
                </mxCell>
                <mxCell id="5" value="Home" style="rounded=0;whiteSpace=wrap;html=1;" vertex="1" parent="1">
                    <mxGeometry x="50" y="130" width="120" height="340" as="geometry"/>
                </mxCell>
                <mxCell id="6" value="Directory" style="rounded=0;whiteSpace=wrap;html=1;" vertex="1" parent="1">
                    <mxGeometry x="180" y="130" width="120" height="340" as="geometry"/>
                </mxCell>
                <mxCell id="7" value="Stories" style="rounded=0;whiteSpace=wrap;html=1;" vertex="1" parent="1">
                    <mxGeometry x="310" y="130" width="120" height="340" as="geometry"/>
                </mxCell>
                <mxCell id="8" value="Carreers" style="rounded=0;whiteSpace=wrap;html=1;" vertex="1" parent="1">
                    <mxGeometry x="440" y="130" width="120" height="340" as="geometry"/>
                </mxCell>
                <mxCell id="9" value="Events" style="rounded=0;whiteSpace=wrap;html=1;" vertex="1" parent="1">
                    <mxGeometry x="570" y="130" width="120" height="340" as="geometry"/>
                </mxCell>
                <mxCell id="10" value="Student Details" style="rounded=0;whiteSpace=wrap;html=1;" vertex="1" parent="1">
                    <mxGeometry x="180" y="570" width="120" height="340" as="geometry"/>
                </mxCell>
                <mxCell id="11" value="Sidebar&lt;br&gt;(optional)" style="rounded=0;whiteSpace=wrap;html=1;" vertex="1" parent="1">
                    <mxGeometry x="707" y="130" width="120" height="340" as="geometry"/>
                </mxCell>
            </root>
        </mxGraphModel>
    </diagram>
</mxfile>